<?xml version="1.0" encoding="utf-8"?>
<svg xmlns="http://www.w3.org/2000/svg" xmlns:xlink="http://www.w3.org/1999/xlink" style="margin: auto; background: none; display: block; shape-rendering: auto;" width="217px" height="217px" viewBox="0 0 100 100" preserveAspectRatio="xMidYMid">
<g transform="rotate(0 50 50)">
  <rect x="49.5" y="15" rx="0.5" ry="6" width="1" height="12" fill="#03ca64">
    <animate attributeName="opacity" values="1;0" keyTimes="0;1" dur="1s" begin="-0.9787234042553191s" repeatCount="indefinite"></animate>
  </rect>
</g><g transform="rotate(7.659574468085107 50 50)">
  <rect x="49.5" y="15" rx="0.5" ry="6" width="1" height="12" fill="#f6ec36">
    <animate attributeName="opacity" values="1;0" keyTimes="0;1" dur="1s" begin="-0.9574468085106383s" repeatCount="indefinite"></animate>
  </rect>
</g><g transform="rotate(15.319148936170214 50 50)">
  <rect x="49.5" y="15" rx="0.5" ry="6" width="1" height="12" fill="#ffffff">
    <animate attributeName="opacity" values="1;0" keyTimes="0;1" dur="1s" begin="-0.9361702127659575s" repeatCount="indefinite"></animate>
  </rect>
</g><g transform="rotate(22.97872340425532 50 50)">
  <rect x="49.5" y="15" rx="0.5" ry="6" width="1" height="12" fill="#000000">
    <animate attributeName="opacity" values="1;0" keyTimes="0;1" dur="1s" begin="-0.9148936170212766s" repeatCount="indefinite"></animate>
  </rect>
</g><g transform="rotate(30.638297872340427 50 50)">
  <rect x="49.5" y="15" rx="0.5" ry="6" width="1" height="12" fill="#03ca64">
    <animate attributeName="opacity" values="1;0" keyTimes="0;1" dur="1s" begin="-0.8936170212765957s" repeatCount="indefinite"></animate>
  </rect>
</g><g transform="rotate(38.297872340425535 50 50)">
  <rect x="49.5" y="15" rx="0.5" ry="6" width="1" height="12" fill="#f6ec36">
    <animate attributeName="opacity" values="1;0" keyTimes="0;1" dur="1s" begin="-0.8723404255319149s" repeatCount="indefinite"></animate>
  </rect>
</g><g transform="rotate(45.95744680851064 50 50)">
  <rect x="49.5" y="15" rx="0.5" ry="6" width="1" height="12" fill="#ffffff">
    <animate attributeName="opacity" values="1;0" keyTimes="0;1" dur="1s" begin="-0.851063829787234s" repeatCount="indefinite"></animate>
  </rect>
</g><g transform="rotate(53.61702127659574 50 50)">
  <rect x="49.5" y="15" rx="0.5" ry="6" width="1" height="12" fill="#000000">
    <animate attributeName="opacity" values="1;0" keyTimes="0;1" dur="1s" begin="-0.8297872340425532s" repeatCount="indefinite"></animate>
  </rect>
</g><g transform="rotate(61.276595744680854 50 50)">
  <rect x="49.5" y="15" rx="0.5" ry="6" width="1" height="12" fill="#03ca64">
    <animate attributeName="opacity" values="1;0" keyTimes="0;1" dur="1s" begin="-0.8085106382978723s" repeatCount="indefinite"></animate>
  </rect>
</g><g transform="rotate(68.93617021276596 50 50)">
  <rect x="49.5" y="15" rx="0.5" ry="6" width="1" height="12" fill="#f6ec36">
    <animate attributeName="opacity" values="1;0" keyTimes="0;1" dur="1s" begin="-0.7872340425531915s" repeatCount="indefinite"></animate>
  </rect>
</g><g transform="rotate(76.59574468085107 50 50)">
  <rect x="49.5" y="15" rx="0.5" ry="6" width="1" height="12" fill="#ffffff">
    <animate attributeName="opacity" values="1;0" keyTimes="0;1" dur="1s" begin="-0.7659574468085106s" repeatCount="indefinite"></animate>
  </rect>
</g><g transform="rotate(84.25531914893617 50 50)">
  <rect x="49.5" y="15" rx="0.5" ry="6" width="1" height="12" fill="#000000">
    <animate attributeName="opacity" values="1;0" keyTimes="0;1" dur="1s" begin="-0.7446808510638298s" repeatCount="indefinite"></animate>
  </rect>
</g><g transform="rotate(91.91489361702128 50 50)">
  <rect x="49.5" y="15" rx="0.5" ry="6" width="1" height="12" fill="#03ca64">
    <animate attributeName="opacity" values="1;0" keyTimes="0;1" dur="1s" begin="-0.723404255319149s" repeatCount="indefinite"></animate>
  </rect>
</g><g transform="rotate(99.57446808510639 50 50)">
  <rect x="49.5" y="15" rx="0.5" ry="6" width="1" height="12" fill="#f6ec36">
    <animate attributeName="opacity" values="1;0" keyTimes="0;1" dur="1s" begin="-0.7021276595744681s" repeatCount="indefinite"></animate>
  </rect>
</g><g transform="rotate(107.23404255319149 50 50)">
  <rect x="49.5" y="15" rx="0.5" ry="6" width="1" height="12" fill="#ffffff">
    <animate attributeName="opacity" values="1;0" keyTimes="0;1" dur="1s" begin="-0.6808510638297872s" repeatCount="indefinite"></animate>
  </rect>
</g><g transform="rotate(114.8936170212766 50 50)">
  <rect x="49.5" y="15" rx="0.5" ry="6" width="1" height="12" fill="#000000">
    <animate attributeName="opacity" values="1;0" keyTimes="0;1" dur="1s" begin="-0.6595744680851063s" repeatCount="indefinite"></animate>
  </rect>
</g><g transform="rotate(122.55319148936171 50 50)">
  <rect x="49.5" y="15" rx="0.5" ry="6" width="1" height="12" fill="#03ca64">
    <animate attributeName="opacity" values="1;0" keyTimes="0;1" dur="1s" begin="-0.6382978723404256s" repeatCount="indefinite"></animate>
  </rect>
</g><g transform="rotate(130.2127659574468 50 50)">
  <rect x="49.5" y="15" rx="0.5" ry="6" width="1" height="12" fill="#f6ec36">
    <animate attributeName="opacity" values="1;0" keyTimes="0;1" dur="1s" begin="-0.6170212765957447s" repeatCount="indefinite"></animate>
  </rect>
</g><g transform="rotate(137.87234042553192 50 50)">
  <rect x="49.5" y="15" rx="0.5" ry="6" width="1" height="12" fill="#ffffff">
    <animate attributeName="opacity" values="1;0" keyTimes="0;1" dur="1s" begin="-0.5957446808510638s" repeatCount="indefinite"></animate>
  </rect>
</g><g transform="rotate(145.53191489361703 50 50)">
  <rect x="49.5" y="15" rx="0.5" ry="6" width="1" height="12" fill="#000000">
    <animate attributeName="opacity" values="1;0" keyTimes="0;1" dur="1s" begin="-0.574468085106383s" repeatCount="indefinite"></animate>
  </rect>
</g><g transform="rotate(153.19148936170214 50 50)">
  <rect x="49.5" y="15" rx="0.5" ry="6" width="1" height="12" fill="#03ca64">
    <animate attributeName="opacity" values="1;0" keyTimes="0;1" dur="1s" begin="-0.5531914893617021s" repeatCount="indefinite"></animate>
  </rect>
</g><g transform="rotate(160.85106382978722 50 50)">
  <rect x="49.5" y="15" rx="0.5" ry="6" width="1" height="12" fill="#f6ec36">
    <animate attributeName="opacity" values="1;0" keyTimes="0;1" dur="1s" begin="-0.5319148936170213s" repeatCount="indefinite"></animate>
  </rect>
</g><g transform="rotate(168.51063829787233 50 50)">
  <rect x="49.5" y="15" rx="0.5" ry="6" width="1" height="12" fill="#ffffff">
    <animate attributeName="opacity" values="1;0" keyTimes="0;1" dur="1s" begin="-0.5106382978723404s" repeatCount="indefinite"></animate>
  </rect>
</g><g transform="rotate(176.17021276595744 50 50)">
  <rect x="49.5" y="15" rx="0.5" ry="6" width="1" height="12" fill="#000000">
    <animate attributeName="opacity" values="1;0" keyTimes="0;1" dur="1s" begin="-0.48936170212765956s" repeatCount="indefinite"></animate>
  </rect>
</g><g transform="rotate(183.82978723404256 50 50)">
  <rect x="49.5" y="15" rx="0.5" ry="6" width="1" height="12" fill="#03ca64">
    <animate attributeName="opacity" values="1;0" keyTimes="0;1" dur="1s" begin="-0.46808510638297873s" repeatCount="indefinite"></animate>
  </rect>
</g><g transform="rotate(191.48936170212767 50 50)">
  <rect x="49.5" y="15" rx="0.5" ry="6" width="1" height="12" fill="#f6ec36">
    <animate attributeName="opacity" values="1;0" keyTimes="0;1" dur="1s" begin="-0.44680851063829785s" repeatCount="indefinite"></animate>
  </rect>
</g><g transform="rotate(199.14893617021278 50 50)">
  <rect x="49.5" y="15" rx="0.5" ry="6" width="1" height="12" fill="#ffffff">
    <animate attributeName="opacity" values="1;0" keyTimes="0;1" dur="1s" begin="-0.425531914893617s" repeatCount="indefinite"></animate>
  </rect>
</g><g transform="rotate(206.80851063829786 50 50)">
  <rect x="49.5" y="15" rx="0.5" ry="6" width="1" height="12" fill="#000000">
    <animate attributeName="opacity" values="1;0" keyTimes="0;1" dur="1s" begin="-0.40425531914893614s" repeatCount="indefinite"></animate>
  </rect>
</g><g transform="rotate(214.46808510638297 50 50)">
  <rect x="49.5" y="15" rx="0.5" ry="6" width="1" height="12" fill="#03ca64">
    <animate attributeName="opacity" values="1;0" keyTimes="0;1" dur="1s" begin="-0.3829787234042553s" repeatCount="indefinite"></animate>
  </rect>
</g><g transform="rotate(222.12765957446808 50 50)">
  <rect x="49.5" y="15" rx="0.5" ry="6" width="1" height="12" fill="#f6ec36">
    <animate attributeName="opacity" values="1;0" keyTimes="0;1" dur="1s" begin="-0.3617021276595745s" repeatCount="indefinite"></animate>
  </rect>
</g><g transform="rotate(229.7872340425532 50 50)">
  <rect x="49.5" y="15" rx="0.5" ry="6" width="1" height="12" fill="#ffffff">
    <animate attributeName="opacity" values="1;0" keyTimes="0;1" dur="1s" begin="-0.3404255319148936s" repeatCount="indefinite"></animate>
  </rect>
</g><g transform="rotate(237.4468085106383 50 50)">
  <rect x="49.5" y="15" rx="0.5" ry="6" width="1" height="12" fill="#000000">
    <animate attributeName="opacity" values="1;0" keyTimes="0;1" dur="1s" begin="-0.3191489361702128s" repeatCount="indefinite"></animate>
  </rect>
</g><g transform="rotate(245.10638297872342 50 50)">
  <rect x="49.5" y="15" rx="0.5" ry="6" width="1" height="12" fill="#03ca64">
    <animate attributeName="opacity" values="1;0" keyTimes="0;1" dur="1s" begin="-0.2978723404255319s" repeatCount="indefinite"></animate>
  </rect>
</g><g transform="rotate(252.7659574468085 50 50)">
  <rect x="49.5" y="15" rx="0.5" ry="6" width="1" height="12" fill="#f6ec36">
    <animate attributeName="opacity" values="1;0" keyTimes="0;1" dur="1s" begin="-0.2765957446808511s" repeatCount="indefinite"></animate>
  </rect>
</g><g transform="rotate(260.4255319148936 50 50)">
  <rect x="49.5" y="15" rx="0.5" ry="6" width="1" height="12" fill="#ffffff">
    <animate attributeName="opacity" values="1;0" keyTimes="0;1" dur="1s" begin="-0.2553191489361702s" repeatCount="indefinite"></animate>
  </rect>
</g><g transform="rotate(268.0851063829787 50 50)">
  <rect x="49.5" y="15" rx="0.5" ry="6" width="1" height="12" fill="#000000">
    <animate attributeName="opacity" values="1;0" keyTimes="0;1" dur="1s" begin="-0.23404255319148937s" repeatCount="indefinite"></animate>
  </rect>
</g><g transform="rotate(275.74468085106383 50 50)">
  <rect x="49.5" y="15" rx="0.5" ry="6" width="1" height="12" fill="#03ca64">
    <animate attributeName="opacity" values="1;0" keyTimes="0;1" dur="1s" begin="-0.2127659574468085s" repeatCount="indefinite"></animate>
  </rect>
</g><g transform="rotate(283.40425531914894 50 50)">
  <rect x="49.5" y="15" rx="0.5" ry="6" width="1" height="12" fill="#f6ec36">
    <animate attributeName="opacity" values="1;0" keyTimes="0;1" dur="1s" begin="-0.19148936170212766s" repeatCount="indefinite"></animate>
  </rect>
</g><g transform="rotate(291.06382978723406 50 50)">
  <rect x="49.5" y="15" rx="0.5" ry="6" width="1" height="12" fill="#ffffff">
    <animate attributeName="opacity" values="1;0" keyTimes="0;1" dur="1s" begin="-0.1702127659574468s" repeatCount="indefinite"></animate>
  </rect>
</g><g transform="rotate(298.72340425531917 50 50)">
  <rect x="49.5" y="15" rx="0.5" ry="6" width="1" height="12" fill="#000000">
    <animate attributeName="opacity" values="1;0" keyTimes="0;1" dur="1s" begin="-0.14893617021276595s" repeatCount="indefinite"></animate>
  </rect>
</g><g transform="rotate(306.3829787234043 50 50)">
  <rect x="49.5" y="15" rx="0.5" ry="6" width="1" height="12" fill="#03ca64">
    <animate attributeName="opacity" values="1;0" keyTimes="0;1" dur="1s" begin="-0.1276595744680851s" repeatCount="indefinite"></animate>
  </rect>
</g><g transform="rotate(314.0425531914894 50 50)">
  <rect x="49.5" y="15" rx="0.5" ry="6" width="1" height="12" fill="#f6ec36">
    <animate attributeName="opacity" values="1;0" keyTimes="0;1" dur="1s" begin="-0.10638297872340426s" repeatCount="indefinite"></animate>
  </rect>
</g><g transform="rotate(321.70212765957444 50 50)">
  <rect x="49.5" y="15" rx="0.5" ry="6" width="1" height="12" fill="#ffffff">
    <animate attributeName="opacity" values="1;0" keyTimes="0;1" dur="1s" begin="-0.0851063829787234s" repeatCount="indefinite"></animate>
  </rect>
</g><g transform="rotate(329.36170212765956 50 50)">
  <rect x="49.5" y="15" rx="0.5" ry="6" width="1" height="12" fill="#000000">
    <animate attributeName="opacity" values="1;0" keyTimes="0;1" dur="1s" begin="-0.06382978723404255s" repeatCount="indefinite"></animate>
  </rect>
</g><g transform="rotate(337.02127659574467 50 50)">
  <rect x="49.5" y="15" rx="0.5" ry="6" width="1" height="12" fill="#03ca64">
    <animate attributeName="opacity" values="1;0" keyTimes="0;1" dur="1s" begin="-0.0425531914893617s" repeatCount="indefinite"></animate>
  </rect>
</g><g transform="rotate(344.6808510638298 50 50)">
  <rect x="49.5" y="15" rx="0.5" ry="6" width="1" height="12" fill="#f6ec36">
    <animate attributeName="opacity" values="1;0" keyTimes="0;1" dur="1s" begin="-0.02127659574468085s" repeatCount="indefinite"></animate>
  </rect>
</g><g transform="rotate(352.3404255319149 50 50)">
  <rect x="49.5" y="15" rx="0.5" ry="6" width="1" height="12" fill="#ffffff">
    <animate attributeName="opacity" values="1;0" keyTimes="0;1" dur="1s" begin="0s" repeatCount="indefinite"></animate>
  </rect>
</g>
<!-- [ldio] generated by https://loading.io/ --></svg>